# xmcd
#
# Track frame offsets:
#	150
#	14932
#	29692
#	44608
#	60613
#	82701
#	100351
#	124763
#	139125
#
# Disc length: 2086 seconds
#
# Revision: 0
# Processed by: cddbd v1.5.2PL0 Copyright (c) Steve Scherf et al.
# Submitted via: audiograbber 1.83.01
#
DISCID=7e082409
DTITLE=The Petting Blues Band - Spontaneous
DYEAR=2019
DGENRE=Blues
TTITLE0=Blame
TTITLE1=Pushed You Out  Of My Head
TTITLE2=Bad Habit
TTITLE3=Deep Well
TTITLE4=Lost Kisses
TTITLE5=Hands Of Steel
TTITLE6=Burnt Heart
TTITLE7=Drummer's Song
TTITLE8=Splitted Hearts
EXTD=
EXTT0=
EXTT1=
EXTT2=
EXTT3=
EXTT4=
EXTT5=
EXTT6=
EXTT7=
EXTT8=
PLAYORDER=
